<mxfile>
    <diagram id="P5G0RMy8URGhR1xEafSv" name="Page-1">
        <mxGraphModel dx="1817" dy="575" grid="1" gridSize="10" guides="1" tooltips="1" connect="1" arrows="1" fold="1" page="1" pageScale="1" pageWidth="827" pageHeight="1169" math="0" shadow="0">
            <root>
                <mxCell id="0"/>
                <mxCell id="1" parent="0"/>
                <mxCell id="34" value="&lt;font&gt;&lt;span style=&quot;font-size: 24px&quot;&gt;ER - Diagram DB&lt;br&gt;&lt;/span&gt;&lt;font style=&quot;font-size: 18px&quot;&gt;e-commerce&amp;nbsp;&lt;/font&gt;&lt;br&gt;&lt;/font&gt;" style="rounded=0;whiteSpace=wrap;html=1;" parent="1" vertex="1">
                    <mxGeometry x="289" y="90" width="250" height="90" as="geometry"/>
                </mxCell>
                <mxCell id="36" value="&lt;b&gt;Shopping Cart&lt;/b&gt;" style="whiteSpace=wrap;html=1;align=center;fillColor=#dae8fc;strokeColor=#6c8ebf;" parent="1" vertex="1">
                    <mxGeometry x="61" y="835" width="100" height="40" as="geometry"/>
                </mxCell>
                <mxCell id="39" value="&lt;b&gt;Product&lt;/b&gt;" style="whiteSpace=wrap;html=1;align=center;fillColor=#dae8fc;strokeColor=#6c8ebf;" parent="1" vertex="1">
                    <mxGeometry x="61" y="480" width="100" height="40" as="geometry"/>
                </mxCell>
                <mxCell id="40" value="&lt;u&gt;Product ID&lt;/u&gt;&lt;br&gt;Question ID&lt;br&gt;Name&lt;br&gt;Category&lt;br&gt;Supplier&lt;br&gt;Details&lt;br&gt;Price&lt;br&gt;Availability" style="ellipse;whiteSpace=wrap;html=1;align=center;" parent="1" vertex="1">
                    <mxGeometry x="-130" y="292.5" width="100" height="140" as="geometry"/>
                </mxCell>
                <mxCell id="44" value="&lt;b&gt;Customer&lt;/b&gt;" style="whiteSpace=wrap;html=1;align=center;fillColor=#d5e8d4;strokeColor=#82b366;" parent="1" vertex="1">
                    <mxGeometry x="386" y="480" width="100" height="40" as="geometry"/>
                </mxCell>
                <mxCell id="46" value="contains" style="shape=rhombus;perimeter=rhombusPerimeter;whiteSpace=wrap;html=1;align=center;fillColor=#fff2cc;strokeColor=#d6b656;" parent="1" vertex="1">
                    <mxGeometry x="51" y="550" width="120" height="60" as="geometry"/>
                </mxCell>
                <mxCell id="47" value="&lt;b&gt;&amp;nbsp;Account/&lt;br&gt;LOGGED IN Customer&lt;br&gt;&lt;/b&gt;" style="whiteSpace=wrap;html=1;align=center;fillColor=#d5e8d4;strokeColor=#82b366;" parent="1" vertex="1">
                    <mxGeometry x="386" y="646" width="100" height="70" as="geometry"/>
                </mxCell>
                <mxCell id="56" value="has" style="shape=rhombus;perimeter=rhombusPerimeter;whiteSpace=wrap;html=1;align=center;fillColor=#fff2cc;strokeColor=#d6b656;" parent="1" vertex="1">
                    <mxGeometry x="526" y="825" width="120" height="60" as="geometry"/>
                </mxCell>
                <mxCell id="57" value="&lt;u&gt;Shopping Cart ID&lt;br&gt;&lt;/u&gt;Account ID&lt;br&gt;Item ID&lt;br&gt;Total Costs" style="ellipse;whiteSpace=wrap;html=1;align=center;" parent="1" vertex="1">
                    <mxGeometry x="-122" y="803.75" width="127" height="102.5" as="geometry"/>
                </mxCell>
                <mxCell id="59" value="&lt;u&gt;Purchase ID&lt;/u&gt;&lt;br&gt;Shopping Cart ID&lt;br&gt;Payment Type ID&lt;br&gt;Shipping Costs&lt;br&gt;Creation Date Time" style="ellipse;whiteSpace=wrap;html=1;align=center;" parent="1" vertex="1">
                    <mxGeometry x="211" y="906.25" width="144" height="100" as="geometry"/>
                </mxCell>
                <mxCell id="60" value="&lt;u&gt;Account ID&lt;br&gt;&lt;/u&gt;PurchaseID&lt;br&gt;Payment ID&lt;br&gt;Customer Details ID&lt;br&gt;Username&lt;br&gt;Password" style="ellipse;whiteSpace=wrap;html=1;align=center;" parent="1" vertex="1">
                    <mxGeometry x="201" y="630.5" width="140" height="101" as="geometry"/>
                </mxCell>
                <mxCell id="62" value="adds" style="shape=rhombus;perimeter=rhombusPerimeter;whiteSpace=wrap;html=1;align=center;fillColor=#fff2cc;strokeColor=#d6b656;" parent="1" vertex="1">
                    <mxGeometry x="211" y="470" width="120" height="60" as="geometry"/>
                </mxCell>
                <mxCell id="63" value="" style="endArrow=none;html=1;rounded=0;strokeWidth=1;exitX=1;exitY=1;exitDx=0;exitDy=0;entryX=0;entryY=0;entryDx=0;entryDy=0;" parent="1" source="40" target="39" edge="1">
                    <mxGeometry relative="1" as="geometry">
                        <mxPoint x="-258.6446609406728" y="473.89087296525986" as="sourcePoint"/>
                        <mxPoint x="-244" y="490" as="targetPoint"/>
                    </mxGeometry>
                </mxCell>
                <mxCell id="65" value="has" style="shape=rhombus;perimeter=rhombusPerimeter;whiteSpace=wrap;html=1;align=center;fillColor=#fff2cc;strokeColor=#d6b656;" parent="1" vertex="1">
                    <mxGeometry x="376" y="553.75" width="120" height="60" as="geometry"/>
                </mxCell>
                <mxCell id="69" value="&lt;b&gt;Purchase&lt;/b&gt;" style="whiteSpace=wrap;html=1;align=center;fillColor=#dae8fc;strokeColor=#6c8ebf;" parent="1" vertex="1">
                    <mxGeometry x="386" y="835" width="100" height="40" as="geometry"/>
                </mxCell>
                <mxCell id="70" value="&lt;b&gt;Email/Invoice&lt;/b&gt;" style="whiteSpace=wrap;html=1;align=center;fillColor=#dae8fc;strokeColor=#6c8ebf;" parent="1" vertex="1">
                    <mxGeometry x="687" y="835" width="100" height="40" as="geometry"/>
                </mxCell>
                <mxCell id="79" value="" style="endArrow=none;html=1;rounded=0;strokeWidth=1;exitX=0;exitY=0.5;exitDx=0;exitDy=0;entryX=1;entryY=0.5;entryDx=0;entryDy=0;" parent="1" source="36" target="57" edge="1">
                    <mxGeometry relative="1" as="geometry">
                        <mxPoint x="159.64466094067848" y="578.8908729652537" as="sourcePoint"/>
                        <mxPoint x="146" y="635" as="targetPoint"/>
                    </mxGeometry>
                </mxCell>
                <mxCell id="80" style="edgeStyle=orthogonalEdgeStyle;rounded=0;orthogonalLoop=1;jettySize=auto;html=1;entryX=0.5;entryY=1;entryDx=0;entryDy=0;strokeWidth=1;endArrow=ERoneToMany;endFill=0;exitX=0.5;exitY=0;exitDx=0;exitDy=0;" parent="1" source="46" target="39" edge="1">
                    <mxGeometry relative="1" as="geometry">
                        <mxPoint x="26" y="510" as="sourcePoint"/>
                        <mxPoint x="71" y="510" as="targetPoint"/>
                    </mxGeometry>
                </mxCell>
                <mxCell id="90" value="&lt;b&gt;Item&lt;/b&gt;" style="whiteSpace=wrap;html=1;align=center;fillColor=#dae8fc;strokeColor=#6c8ebf;" parent="1" vertex="1">
                    <mxGeometry x="61" y="650" width="100" height="40" as="geometry"/>
                </mxCell>
                <mxCell id="91" value="contains" style="shape=rhombus;perimeter=rhombusPerimeter;whiteSpace=wrap;html=1;align=center;fillColor=#fff2cc;strokeColor=#d6b656;" parent="1" vertex="1">
                    <mxGeometry x="51" y="734.5" width="120" height="60" as="geometry"/>
                </mxCell>
                <mxCell id="92" value="&lt;u&gt;Item ID&lt;/u&gt;&lt;br&gt;Product ID&lt;br&gt;Amount" style="ellipse;whiteSpace=wrap;html=1;align=center;" parent="1" vertex="1">
                    <mxGeometry x="-122" y="618.75" width="127" height="102.5" as="geometry"/>
                </mxCell>
                <mxCell id="93" value="" style="endArrow=none;html=1;rounded=0;strokeWidth=1;exitX=0;exitY=0.5;exitDx=0;exitDy=0;entryX=1;entryY=0.5;entryDx=0;entryDy=0;" parent="1" target="92" edge="1">
                    <mxGeometry relative="1" as="geometry">
                        <mxPoint x="61" y="669.9999999999998" as="sourcePoint"/>
                        <mxPoint x="146" y="450" as="targetPoint"/>
                    </mxGeometry>
                </mxCell>
                <mxCell id="94" style="edgeStyle=orthogonalEdgeStyle;rounded=0;orthogonalLoop=1;jettySize=auto;html=1;entryX=0.5;entryY=0;entryDx=0;entryDy=0;strokeWidth=1;endArrow=ERone;endFill=0;exitX=0.5;exitY=1;exitDx=0;exitDy=0;" parent="1" source="46" target="90" edge="1">
                    <mxGeometry relative="1" as="geometry">
                        <mxPoint x="121" y="559.9999999999999" as="sourcePoint"/>
                        <mxPoint x="121" y="530.0000000000001" as="targetPoint"/>
                    </mxGeometry>
                </mxCell>
                <mxCell id="95" style="edgeStyle=orthogonalEdgeStyle;rounded=0;orthogonalLoop=1;jettySize=auto;html=1;entryX=0.5;entryY=0;entryDx=0;entryDy=0;strokeWidth=1;endArrow=ERone;endFill=0;exitX=0.5;exitY=1;exitDx=0;exitDy=0;" parent="1" source="91" target="36" edge="1">
                    <mxGeometry relative="1" as="geometry">
                        <mxPoint x="111" y="790" as="sourcePoint"/>
                        <mxPoint x="121" y="659.9999999999999" as="targetPoint"/>
                    </mxGeometry>
                </mxCell>
                <mxCell id="96" style="edgeStyle=orthogonalEdgeStyle;rounded=0;orthogonalLoop=1;jettySize=auto;html=1;entryX=0.5;entryY=1;entryDx=0;entryDy=0;strokeWidth=1;endArrow=ERzeroToMany;endFill=1;exitX=0.5;exitY=0;exitDx=0;exitDy=0;" parent="1" source="91" target="90" edge="1">
                    <mxGeometry relative="1" as="geometry">
                        <mxPoint x="131" y="629.9999999999999" as="sourcePoint"/>
                        <mxPoint x="131" y="669.9999999999999" as="targetPoint"/>
                    </mxGeometry>
                </mxCell>
                <mxCell id="109" value="&lt;u&gt;Payment ID&lt;/u&gt;&lt;br&gt;Payment Type ID&lt;br&gt;&amp;nbsp;Order ID&lt;br&gt;Creation Date Time" style="ellipse;whiteSpace=wrap;html=1;align=center;" parent="1" vertex="1">
                    <mxGeometry x="860" y="637.88" width="117.5" height="86.25" as="geometry"/>
                </mxCell>
                <mxCell id="118" value="" style="endArrow=none;html=1;rounded=0;strokeWidth=1;entryX=1;entryY=0.5;entryDx=0;entryDy=0;exitX=0;exitY=0.5;exitDx=0;exitDy=0;" parent="1" source="47" target="60" edge="1">
                    <mxGeometry relative="1" as="geometry">
                        <mxPoint x="428.5" y="850" as="sourcePoint"/>
                        <mxPoint x="516" y="800" as="targetPoint"/>
                    </mxGeometry>
                </mxCell>
                <mxCell id="121" value="&lt;b&gt;Payment Type&lt;/b&gt;" style="whiteSpace=wrap;html=1;align=center;fillColor=#dae8fc;strokeColor=#6c8ebf;" parent="1" vertex="1">
                    <mxGeometry x="687" y="510" width="100" height="40" as="geometry"/>
                </mxCell>
                <mxCell id="122" value="is notified" style="shape=rhombus;perimeter=rhombusPerimeter;whiteSpace=wrap;html=1;align=center;fillColor=#fff2cc;strokeColor=#d6b656;" parent="1" vertex="1">
                    <mxGeometry x="526" y="230" width="120" height="60" as="geometry"/>
                </mxCell>
                <mxCell id="138" value="" style="endArrow=ERoneToMany;html=1;rounded=0;strokeWidth=1;entryX=0;entryY=0.5;entryDx=0;entryDy=0;endFill=0;exitX=1;exitY=0.5;exitDx=0;exitDy=0;" parent="1" source="139" target="142" edge="1">
                    <mxGeometry relative="1" as="geometry">
                        <mxPoint x="786" y="530" as="sourcePoint"/>
                        <mxPoint x="556" y="636" as="targetPoint"/>
                    </mxGeometry>
                </mxCell>
                <mxCell id="139" value="has" style="shape=rhombus;perimeter=rhombusPerimeter;whiteSpace=wrap;html=1;align=center;fillColor=#fff2cc;strokeColor=#d6b656;" parent="1" vertex="1">
                    <mxGeometry x="526" y="651" width="120" height="60" as="geometry"/>
                </mxCell>
                <mxCell id="140" value="" style="endArrow=none;html=1;rounded=0;strokeWidth=1;entryX=1;entryY=0.5;entryDx=0;entryDy=0;" parent="1" target="139" edge="1">
                    <mxGeometry relative="1" as="geometry">
                        <mxPoint x="646" y="680" as="sourcePoint"/>
                        <mxPoint x="416" y="785" as="targetPoint"/>
                    </mxGeometry>
                </mxCell>
                <mxCell id="141" value="&lt;u&gt;Payment Type ID&lt;br&gt;&lt;/u&gt;Payment Type" style="ellipse;whiteSpace=wrap;html=1;align=center;" parent="1" vertex="1">
                    <mxGeometry x="676.25" y="392.75" width="121.5" height="90" as="geometry"/>
                </mxCell>
                <mxCell id="142" value="&lt;b&gt;Payment&lt;/b&gt;" style="whiteSpace=wrap;html=1;align=center;fillColor=#dae8fc;strokeColor=#6c8ebf;" parent="1" vertex="1">
                    <mxGeometry x="686.5" y="661" width="100" height="40" as="geometry"/>
                </mxCell>
                <mxCell id="144" value="" style="endArrow=none;html=1;rounded=0;strokeWidth=1;exitX=0.5;exitY=1;exitDx=0;exitDy=0;entryX=0.5;entryY=0;entryDx=0;entryDy=0;endFill=0;startArrow=ERone;startFill=0;" parent="1" source="142" target="147" edge="1">
                    <mxGeometry relative="1" as="geometry">
                        <mxPoint x="426" y="680" as="sourcePoint"/>
                        <mxPoint x="606" y="810" as="targetPoint"/>
                    </mxGeometry>
                </mxCell>
                <mxCell id="147" value="has" style="shape=rhombus;perimeter=rhombusPerimeter;whiteSpace=wrap;html=1;align=center;fillColor=#fff2cc;strokeColor=#d6b656;" parent="1" vertex="1">
                    <mxGeometry x="677" y="738" width="120" height="60" as="geometry"/>
                </mxCell>
                <mxCell id="149" value="" style="endArrow=ERone;html=1;rounded=0;strokeWidth=1;endFill=0;entryX=0.5;entryY=0;entryDx=0;entryDy=0;exitX=0.5;exitY=1;exitDx=0;exitDy=0;" parent="1" source="147" target="70" edge="1">
                    <mxGeometry relative="1" as="geometry">
                        <mxPoint x="666" y="790" as="sourcePoint"/>
                        <mxPoint x="893.5" y="835" as="targetPoint"/>
                    </mxGeometry>
                </mxCell>
                <mxCell id="150" value="" style="endArrow=ERone;html=1;rounded=0;strokeWidth=1;entryX=0.5;entryY=1;entryDx=0;entryDy=0;endFill=0;exitX=0.5;exitY=0;exitDx=0;exitDy=0;" parent="1" source="167" target="121" edge="1">
                    <mxGeometry relative="1" as="geometry">
                        <mxPoint x="726" y="590" as="sourcePoint"/>
                        <mxPoint x="903.5" y="845" as="targetPoint"/>
                    </mxGeometry>
                </mxCell>
                <mxCell id="153" value="" style="endArrow=none;html=1;rounded=0;strokeWidth=1;entryX=0;entryY=0.5;entryDx=0;entryDy=0;" parent="1" target="109" edge="1">
                    <mxGeometry relative="1" as="geometry">
                        <mxPoint x="786" y="681" as="sourcePoint"/>
                        <mxPoint x="308.75" y="656.12" as="targetPoint"/>
                    </mxGeometry>
                </mxCell>
                <mxCell id="155" style="edgeStyle=orthogonalEdgeStyle;rounded=0;orthogonalLoop=1;jettySize=auto;html=1;entryX=1;entryY=0.5;entryDx=0;entryDy=0;strokeWidth=1;endArrow=ERzeroToMany;endFill=1;exitX=0;exitY=0.5;exitDx=0;exitDy=0;" parent="1" source="62" target="39" edge="1">
                    <mxGeometry relative="1" as="geometry">
                        <mxPoint x="121" y="560" as="sourcePoint"/>
                        <mxPoint x="121" y="530" as="targetPoint"/>
                    </mxGeometry>
                </mxCell>
                <mxCell id="156" value="" style="endArrow=none;html=1;rounded=0;strokeWidth=1;entryX=1;entryY=0.5;entryDx=0;entryDy=0;exitX=0;exitY=0.5;exitDx=0;exitDy=0;endFill=0;startArrow=ERzeroToOne;startFill=1;" parent="1" source="44" target="62" edge="1">
                    <mxGeometry relative="1" as="geometry">
                        <mxPoint x="496" y="656" as="sourcePoint"/>
                        <mxPoint x="551.8796883755017" y="598.5605387698797" as="targetPoint"/>
                    </mxGeometry>
                </mxCell>
                <mxCell id="157" value="" style="endArrow=none;html=1;rounded=0;strokeWidth=1;entryX=0.5;entryY=0;entryDx=0;entryDy=0;exitX=0.5;exitY=1;exitDx=0;exitDy=0;endFill=0;startArrow=ERzeroToOne;startFill=1;" parent="1" source="44" target="65" edge="1">
                    <mxGeometry relative="1" as="geometry">
                        <mxPoint x="396" y="510" as="sourcePoint"/>
                        <mxPoint x="341" y="510" as="targetPoint"/>
                    </mxGeometry>
                </mxCell>
                <mxCell id="158" value="" style="endArrow=none;html=1;rounded=0;strokeWidth=1;entryX=0.5;entryY=1;entryDx=0;entryDy=0;exitX=0.5;exitY=0;exitDx=0;exitDy=0;endFill=0;startArrow=ERzeroToOne;startFill=1;" parent="1" source="47" target="65" edge="1">
                    <mxGeometry relative="1" as="geometry">
                        <mxPoint x="446" y="530" as="sourcePoint"/>
                        <mxPoint x="446" y="568.75" as="targetPoint"/>
                    </mxGeometry>
                </mxCell>
                <mxCell id="162" value="" style="endArrow=ERone;html=1;rounded=0;strokeWidth=1;entryX=1;entryY=0.5;entryDx=0;entryDy=0;endFill=0;exitX=0;exitY=0.5;exitDx=0;exitDy=0;" parent="1" source="139" target="47" edge="1">
                    <mxGeometry relative="1" as="geometry">
                        <mxPoint x="526" y="630" as="sourcePoint"/>
                        <mxPoint x="697" y="691" as="targetPoint"/>
                    </mxGeometry>
                </mxCell>
                <mxCell id="163" value="" style="endArrow=none;html=1;rounded=0;strokeWidth=1;entryX=0;entryY=1;entryDx=0;entryDy=0;exitX=1;exitY=0;exitDx=0;exitDy=0;" parent="1" source="59" target="69" edge="1">
                    <mxGeometry relative="1" as="geometry">
                        <mxPoint x="739" y="945" as="sourcePoint"/>
                        <mxPoint x="496" y="885" as="targetPoint"/>
                    </mxGeometry>
                </mxCell>
                <mxCell id="164" value="" style="endArrow=none;html=1;rounded=0;strokeWidth=1;exitX=0.5;exitY=1;exitDx=0;exitDy=0;" parent="1" source="141" edge="1">
                    <mxGeometry relative="1" as="geometry">
                        <mxPoint x="557.1144330654818" y="790.6844223299358" as="sourcePoint"/>
                        <mxPoint x="737" y="509" as="targetPoint"/>
                    </mxGeometry>
                </mxCell>
                <mxCell id="165" value="" style="curved=1;endArrow=none;html=1;strokeWidth=1;exitX=1;exitY=0.5;exitDx=0;exitDy=0;entryX=1;entryY=0.5;entryDx=0;entryDy=0;startArrow=ERoneToMany;startFill=0;endFill=0;" parent="1" source="70" target="122" edge="1">
                    <mxGeometry width="50" height="50" relative="1" as="geometry">
                        <mxPoint x="1288.59" y="470.45000000000016" as="sourcePoint"/>
                        <mxPoint x="995.9999999999998" y="509" as="targetPoint"/>
                        <Array as="points">
                            <mxPoint x="910" y="860"/>
                            <mxPoint x="1070" y="780"/>
                            <mxPoint x="1090" y="530"/>
                            <mxPoint x="930" y="250"/>
                        </Array>
                    </mxGeometry>
                </mxCell>
                <mxCell id="166" value="" style="curved=1;endArrow=none;html=1;strokeWidth=1;exitX=0.5;exitY=0;exitDx=0;exitDy=0;entryX=0;entryY=0.5;entryDx=0;entryDy=0;startArrow=ERoneToMany;startFill=0;endFill=0;" parent="1" source="44" target="122" edge="1">
                    <mxGeometry width="50" height="50" relative="1" as="geometry">
                        <mxPoint x="747" y="845" as="sourcePoint"/>
                        <mxPoint x="746" y="400" as="targetPoint"/>
                        <Array as="points">
                            <mxPoint x="416" y="250"/>
                        </Array>
                    </mxGeometry>
                </mxCell>
                <mxCell id="167" value="has" style="shape=rhombus;perimeter=rhombusPerimeter;whiteSpace=wrap;html=1;align=center;fillColor=#fff2cc;strokeColor=#d6b656;" parent="1" vertex="1">
                    <mxGeometry x="676.5" y="577.88" width="120" height="60" as="geometry"/>
                </mxCell>
                <mxCell id="169" value="" style="endArrow=ERone;html=1;rounded=0;strokeWidth=1;entryX=0.5;entryY=0;entryDx=0;entryDy=0;endFill=0;exitX=0.5;exitY=1;exitDx=0;exitDy=0;" parent="1" source="167" target="142" edge="1">
                    <mxGeometry relative="1" as="geometry">
                        <mxPoint x="746.5" y="587.88" as="sourcePoint"/>
                        <mxPoint x="747" y="560" as="targetPoint"/>
                    </mxGeometry>
                </mxCell>
                <mxCell id="171" value="&lt;b&gt;&amp;nbsp;Customer&amp;nbsp;&lt;br&gt;Details&lt;br&gt;&lt;/b&gt;" style="whiteSpace=wrap;html=1;align=center;fillColor=#dae8fc;strokeColor=#6c8ebf;" parent="1" vertex="1">
                    <mxGeometry x="536" y="482.75" width="100" height="52.75" as="geometry"/>
                </mxCell>
                <mxCell id="172" value="has" style="shape=rhombus;perimeter=rhombusPerimeter;whiteSpace=wrap;html=1;align=center;fillColor=#fff2cc;strokeColor=#d6b656;" parent="1" vertex="1">
                    <mxGeometry x="526" y="558.75" width="120" height="60" as="geometry"/>
                </mxCell>
                <mxCell id="173" value="" style="endArrow=ERone;html=1;rounded=0;strokeWidth=1;entryX=1;entryY=0;entryDx=0;entryDy=0;endFill=0;exitX=0;exitY=1;exitDx=0;exitDy=0;" parent="1" source="172" target="47" edge="1">
                    <mxGeometry relative="1" as="geometry">
                        <mxPoint x="536" y="691" as="sourcePoint"/>
                        <mxPoint x="496" y="691" as="targetPoint"/>
                    </mxGeometry>
                </mxCell>
                <mxCell id="174" value="" style="endArrow=ERone;html=1;rounded=0;strokeWidth=1;entryX=0.5;entryY=1;entryDx=0;entryDy=0;endFill=0;exitX=0.5;exitY=0;exitDx=0;exitDy=0;" parent="1" source="172" target="171" edge="1">
                    <mxGeometry relative="1" as="geometry">
                        <mxPoint x="566" y="613.75" as="sourcePoint"/>
                        <mxPoint x="496" y="656" as="targetPoint"/>
                    </mxGeometry>
                </mxCell>
                <mxCell id="175" value="&lt;u&gt;Customer Details ID&lt;/u&gt;&lt;br&gt;Name&lt;br&gt;Email&lt;br&gt;Address" style="ellipse;whiteSpace=wrap;html=1;align=center;" parent="1" vertex="1">
                    <mxGeometry x="513.5" y="342.5" width="145" height="97.5" as="geometry"/>
                </mxCell>
                <mxCell id="177" value="" style="endArrow=none;html=1;rounded=0;strokeWidth=1;exitX=0.5;exitY=1;exitDx=0;exitDy=0;entryX=0.5;entryY=0;entryDx=0;entryDy=0;" parent="1" source="175" target="171" edge="1">
                    <mxGeometry relative="1" as="geometry">
                        <mxPoint x="747" y="492.75" as="sourcePoint"/>
                        <mxPoint x="747" y="519" as="targetPoint"/>
                    </mxGeometry>
                </mxCell>
                <mxCell id="183" value="" style="endArrow=ERone;html=1;rounded=0;strokeWidth=1;endFill=0;exitX=1;exitY=0.5;exitDx=0;exitDy=0;entryX=0;entryY=0.5;entryDx=0;entryDy=0;" parent="1" source="184" target="69" edge="1">
                    <mxGeometry relative="1" as="geometry">
                        <mxPoint x="786.5" y="704" as="sourcePoint"/>
                        <mxPoint x="370" y="850" as="targetPoint"/>
                    </mxGeometry>
                </mxCell>
                <mxCell id="184" value="purchasing" style="shape=rhombus;perimeter=rhombusPerimeter;whiteSpace=wrap;html=1;align=center;fillColor=#fff2cc;strokeColor=#d6b656;" parent="1" vertex="1">
                    <mxGeometry x="216" y="822.5" width="120" height="65" as="geometry"/>
                </mxCell>
                <mxCell id="185" value="" style="endArrow=ERone;html=1;rounded=0;strokeWidth=1;endFill=0;exitX=0;exitY=0.5;exitDx=0;exitDy=0;entryX=1;entryY=0.5;entryDx=0;entryDy=0;" parent="1" source="184" target="36" edge="1">
                    <mxGeometry relative="1" as="geometry">
                        <mxPoint x="526.5" y="804" as="sourcePoint"/>
                        <mxPoint x="180" y="940" as="targetPoint"/>
                    </mxGeometry>
                </mxCell>
                <mxCell id="188" value="" style="curved=1;endArrow=ERone;html=1;strokeWidth=1;exitX=0.938;exitY=-0.03;exitDx=0;exitDy=0;entryX=1;entryY=1;entryDx=0;entryDy=0;startArrow=ERzeroToMany;startFill=1;endFill=0;exitPerimeter=0;" parent="1" source="69" target="172" edge="1">
                    <mxGeometry width="50" height="50" relative="1" as="geometry">
                        <mxPoint x="797" y="865" as="sourcePoint"/>
                        <mxPoint x="656" y="270" as="targetPoint"/>
                        <Array as="points">
                            <mxPoint x="480" y="800"/>
                            <mxPoint x="560" y="760"/>
                            <mxPoint x="716" y="750"/>
                        </Array>
                    </mxGeometry>
                </mxCell>
                <mxCell id="189" value="has" style="shape=rhombus;perimeter=rhombusPerimeter;whiteSpace=wrap;html=1;align=center;fillColor=#fff2cc;strokeColor=#d6b656;" parent="1" vertex="1">
                    <mxGeometry x="-115" y="470" width="120" height="60" as="geometry"/>
                </mxCell>
                <mxCell id="190" value="&lt;b&gt;Question&lt;/b&gt;" style="whiteSpace=wrap;html=1;align=center;fillColor=#dae8fc;strokeColor=#6c8ebf;" parent="1" vertex="1">
                    <mxGeometry x="-260" y="480" width="100" height="40" as="geometry"/>
                </mxCell>
                <mxCell id="191" style="edgeStyle=orthogonalEdgeStyle;rounded=0;orthogonalLoop=1;jettySize=auto;html=1;entryX=0;entryY=0.5;entryDx=0;entryDy=0;strokeWidth=1;endArrow=ERoneToMany;endFill=0;exitX=1;exitY=0.5;exitDx=0;exitDy=0;" parent="1" source="189" target="39" edge="1">
                    <mxGeometry relative="1" as="geometry">
                        <mxPoint x="-110" y="500" as="sourcePoint"/>
                        <mxPoint x="171" y="510" as="targetPoint"/>
                    </mxGeometry>
                </mxCell>
                <mxCell id="192" style="edgeStyle=orthogonalEdgeStyle;rounded=0;orthogonalLoop=1;jettySize=auto;html=1;entryX=1;entryY=0.5;entryDx=0;entryDy=0;strokeWidth=1;endArrow=ERone;endFill=0;exitX=0;exitY=0.5;exitDx=0;exitDy=0;" parent="1" source="189" target="190" edge="1">
                    <mxGeometry relative="1" as="geometry">
                        <mxPoint x="15" y="510" as="sourcePoint"/>
                        <mxPoint x="71" y="510" as="targetPoint"/>
                    </mxGeometry>
                </mxCell>
                <mxCell id="193" value="&lt;u&gt;Question ID&lt;/u&gt;&lt;br&gt;Customer ID&lt;br&gt;Title&lt;br&gt;Description" style="ellipse;whiteSpace=wrap;html=1;align=center;" parent="1" vertex="1">
                    <mxGeometry x="-260" y="311.25" width="100" height="121.25" as="geometry"/>
                </mxCell>
                <mxCell id="194" value="" style="endArrow=none;html=1;rounded=0;strokeWidth=1;exitX=0.5;exitY=1;exitDx=0;exitDy=0;entryX=0.5;entryY=0;entryDx=0;entryDy=0;" parent="1" source="193" target="190" edge="1">
                    <mxGeometry relative="1" as="geometry">
                        <mxPoint x="176" y="421.74" as="sourcePoint"/>
                        <mxPoint x="121" y="490" as="targetPoint"/>
                    </mxGeometry>
                </mxCell>
                <mxCell id="195" value="" style="endArrow=ERzeroToMany;html=1;rounded=0;strokeWidth=1;exitX=0.5;exitY=1;exitDx=0;exitDy=0;startArrow=ERone;startFill=0;endFill=1;entryX=0.5;entryY=0;entryDx=0;entryDy=0;" parent="1" source="47" target="69" edge="1">
                    <mxGeometry relative="1" as="geometry">
                        <mxPoint x="436" y="716" as="sourcePoint"/>
                        <mxPoint x="400" y="800" as="targetPoint"/>
                    </mxGeometry>
                </mxCell>
                <mxCell id="196" style="edgeStyle=orthogonalEdgeStyle;rounded=0;orthogonalLoop=1;jettySize=auto;html=1;strokeWidth=1;endArrow=ERone;endFill=0;entryX=1;entryY=0.5;entryDx=0;entryDy=0;exitX=0;exitY=0.5;exitDx=0;exitDy=0;" parent="1" source="56" target="69" edge="1">
                    <mxGeometry relative="1" as="geometry">
                        <mxPoint x="520" y="870" as="sourcePoint"/>
                        <mxPoint x="571" y="845" as="targetPoint"/>
                    </mxGeometry>
                </mxCell>
                <mxCell id="197" style="edgeStyle=orthogonalEdgeStyle;rounded=0;orthogonalLoop=1;jettySize=auto;html=1;strokeWidth=1;endArrow=ERone;endFill=0;entryX=0;entryY=0.5;entryDx=0;entryDy=0;exitX=1;exitY=0.5;exitDx=0;exitDy=0;" parent="1" source="56" target="70" edge="1">
                    <mxGeometry relative="1" as="geometry">
                        <mxPoint x="536" y="865" as="sourcePoint"/>
                        <mxPoint x="496" y="865" as="targetPoint"/>
                    </mxGeometry>
                </mxCell>
                <mxCell id="198" value="&lt;b&gt;Administrator&lt;/b&gt;" style="whiteSpace=wrap;html=1;align=center;fillColor=#d5e8d4;strokeColor=#82b366;" parent="1" vertex="1">
                    <mxGeometry x="221" y="235" width="100" height="50" as="geometry"/>
                </mxCell>
                <mxCell id="199" value="has" style="shape=rhombus;perimeter=rhombusPerimeter;whiteSpace=wrap;html=1;align=center;fillColor=#fff2cc;strokeColor=#d6b656;" parent="1" vertex="1">
                    <mxGeometry x="280" y="340" width="120" height="60" as="geometry"/>
                </mxCell>
                <mxCell id="200" value="" style="curved=1;endArrow=none;html=1;strokeWidth=1;exitX=0.25;exitY=0;exitDx=0;exitDy=0;entryX=0.5;entryY=1;entryDx=0;entryDy=0;startArrow=ERoneToMany;startFill=0;endFill=0;" parent="1" source="47" target="199" edge="1">
                    <mxGeometry width="50" height="50" relative="1" as="geometry">
                        <mxPoint x="446" y="490" as="sourcePoint"/>
                        <mxPoint x="536" y="270" as="targetPoint"/>
                        <Array as="points">
                            <mxPoint x="350" y="620"/>
                            <mxPoint x="350" y="450"/>
                        </Array>
                    </mxGeometry>
                </mxCell>
                <mxCell id="202" value="" style="endArrow=ERoneToMany;html=1;entryX=1;entryY=1;entryDx=0;entryDy=0;exitX=0.5;exitY=0;exitDx=0;exitDy=0;endFill=0;" parent="1" source="199" target="198" edge="1">
                    <mxGeometry width="50" height="50" relative="1" as="geometry">
                        <mxPoint x="300" y="400" as="sourcePoint"/>
                        <mxPoint x="350" y="350" as="targetPoint"/>
                    </mxGeometry>
                </mxCell>
                <mxCell id="203" value="&lt;b&gt;Review&lt;br&gt;&lt;/b&gt;" style="whiteSpace=wrap;html=1;align=center;fillColor=#dae8fc;strokeColor=#6c8ebf;" parent="1" vertex="1">
                    <mxGeometry y="290" width="100" height="40" as="geometry"/>
                </mxCell>
                <mxCell id="204" value="has" style="shape=rhombus;perimeter=rhombusPerimeter;whiteSpace=wrap;html=1;align=center;fillColor=#fff2cc;strokeColor=#d6b656;" parent="1" vertex="1">
                    <mxGeometry x="150" y="340" width="120" height="60" as="geometry"/>
                </mxCell>
                <mxCell id="205" value="has" style="shape=rhombus;perimeter=rhombusPerimeter;whiteSpace=wrap;html=1;align=center;fillColor=#fff2cc;strokeColor=#d6b656;" parent="1" vertex="1">
                    <mxGeometry x="20" y="371.25" width="120" height="60" as="geometry"/>
                </mxCell>
                <mxCell id="206" value="&lt;u&gt;Review ID&lt;br&gt;&lt;/u&gt;Product ID&lt;br&gt;Customer ID&lt;br&gt;Title&lt;br&gt;Description&lt;br&gt;Creation Date Time" style="ellipse;whiteSpace=wrap;html=1;align=center;" parent="1" vertex="1">
                    <mxGeometry x="-30" y="100" width="160" height="130" as="geometry"/>
                </mxCell>
                <mxCell id="207" value="" style="endArrow=none;html=1;rounded=0;strokeWidth=1;entryX=0.5;entryY=0;entryDx=0;entryDy=0;" parent="1" source="206" target="203" edge="1">
                    <mxGeometry relative="1" as="geometry">
                        <mxPoint x="-34.644660940672566" y="421.9974746830585" as="sourcePoint"/>
                        <mxPoint x="71" y="490" as="targetPoint"/>
                    </mxGeometry>
                </mxCell>
                <mxCell id="208" value="" style="curved=1;endArrow=none;html=1;strokeWidth=1;exitX=0;exitY=0;exitDx=0;exitDy=0;entryX=1;entryY=1;entryDx=0;entryDy=0;startArrow=ERone;startFill=0;endFill=0;" parent="1" source="47" target="205" edge="1">
                    <mxGeometry width="50" height="50" relative="1" as="geometry">
                        <mxPoint x="421" y="656" as="sourcePoint"/>
                        <mxPoint x="350" y="410" as="targetPoint"/>
                        <Array as="points">
                            <mxPoint x="300" y="620"/>
                            <mxPoint x="150" y="450"/>
                        </Array>
                    </mxGeometry>
                </mxCell>
                <mxCell id="209" value="" style="endArrow=ERoneToMany;html=1;entryX=0;entryY=1;entryDx=0;entryDy=0;exitX=0.5;exitY=0;exitDx=0;exitDy=0;endFill=0;" parent="1" source="204" target="198" edge="1">
                    <mxGeometry width="50" height="50" relative="1" as="geometry">
                        <mxPoint x="350" y="350" as="sourcePoint"/>
                        <mxPoint x="321" y="300" as="targetPoint"/>
                    </mxGeometry>
                </mxCell>
                <mxCell id="210" value="" style="endArrow=ERoneToMany;html=1;entryX=0.75;entryY=0;entryDx=0;entryDy=0;exitX=0;exitY=1;exitDx=0;exitDy=0;endFill=0;" parent="1" source="204" target="39" edge="1">
                    <mxGeometry width="50" height="50" relative="1" as="geometry">
                        <mxPoint x="220" y="350" as="sourcePoint"/>
                        <mxPoint x="231" y="295" as="targetPoint"/>
                    </mxGeometry>
                </mxCell>
                <mxCell id="211" value="" style="endArrow=ERoneToMany;html=1;entryX=0.5;entryY=1;entryDx=0;entryDy=0;endFill=0;" parent="1" source="205" target="203" edge="1">
                    <mxGeometry width="50" height="50" relative="1" as="geometry">
                        <mxPoint x="220" y="350" as="sourcePoint"/>
                        <mxPoint x="231" y="295" as="targetPoint"/>
                    </mxGeometry>
                </mxCell>
                <mxCell id="212" value="" style="endArrow=ERone;html=1;endFill=0;exitX=0.5;exitY=1;exitDx=0;exitDy=0;" parent="1" source="205" target="39" edge="1">
                    <mxGeometry width="50" height="50" relative="1" as="geometry">
                        <mxPoint x="79.56521739130426" y="386.46739130434787" as="sourcePoint"/>
                        <mxPoint x="60" y="340" as="targetPoint"/>
                    </mxGeometry>
                </mxCell>
                <mxCell id="213" value="&lt;u&gt;Email/Invoice ID&lt;/u&gt;&lt;br&gt;&amp;nbsp;Purchase ID&lt;br&gt;Creation Date Time" style="ellipse;whiteSpace=wrap;html=1;align=center;" parent="1" vertex="1">
                    <mxGeometry x="662" y="910" width="150" height="120" as="geometry"/>
                </mxCell>
                <mxCell id="214" value="" style="endArrow=none;html=1;rounded=0;strokeWidth=1;exitX=0.5;exitY=0;exitDx=0;exitDy=0;entryX=0.5;entryY=1;entryDx=0;entryDy=0;" parent="1" source="213" target="70" edge="1">
                    <mxGeometry relative="1" as="geometry">
                        <mxPoint x="596" y="450" as="sourcePoint"/>
                        <mxPoint x="596" y="492.75" as="targetPoint"/>
                    </mxGeometry>
                </mxCell>
                <mxCell id="215" value="has" style="shape=rhombus;perimeter=rhombusPerimeter;whiteSpace=wrap;html=1;align=center;fillColor=#fff2cc;strokeColor=#d6b656;" parent="1" vertex="1">
                    <mxGeometry x="-436" y="470" width="120" height="60" as="geometry"/>
                </mxCell>
                <mxCell id="216" value="&lt;b&gt;Answer&lt;/b&gt;" style="whiteSpace=wrap;html=1;align=center;fillColor=#dae8fc;strokeColor=#6c8ebf;" parent="1" vertex="1">
                    <mxGeometry x="-581" y="480" width="100" height="40" as="geometry"/>
                </mxCell>
                <mxCell id="217" style="edgeStyle=orthogonalEdgeStyle;rounded=0;orthogonalLoop=1;jettySize=auto;html=1;entryX=0;entryY=0.5;entryDx=0;entryDy=0;strokeWidth=1;endArrow=ERone;endFill=0;exitX=1;exitY=0.5;exitDx=0;exitDy=0;" parent="1" source="215" edge="1">
                    <mxGeometry relative="1" as="geometry">
                        <mxPoint x="-431" y="500" as="sourcePoint"/>
                        <mxPoint x="-260" y="500" as="targetPoint"/>
                    </mxGeometry>
                </mxCell>
                <mxCell id="218" style="edgeStyle=orthogonalEdgeStyle;rounded=0;orthogonalLoop=1;jettySize=auto;html=1;entryX=1;entryY=0.5;entryDx=0;entryDy=0;strokeWidth=1;endArrow=ERzeroToMany;endFill=1;exitX=0;exitY=0.5;exitDx=0;exitDy=0;" parent="1" source="215" target="216" edge="1">
                    <mxGeometry relative="1" as="geometry">
                        <mxPoint x="-306" y="510" as="sourcePoint"/>
                        <mxPoint x="-250" y="510" as="targetPoint"/>
                    </mxGeometry>
                </mxCell>
                <mxCell id="219" value="&lt;u&gt;Answer ID&lt;/u&gt;&lt;br&gt;Qustion ID&lt;br&gt;Customer ID&lt;br&gt;Title&lt;br&gt;Description" style="ellipse;whiteSpace=wrap;html=1;align=center;" parent="1" vertex="1">
                    <mxGeometry x="-581" y="311.25" width="100" height="121.25" as="geometry"/>
                </mxCell>
                <mxCell id="220" value="" style="endArrow=none;html=1;rounded=0;strokeWidth=1;exitX=0.5;exitY=1;exitDx=0;exitDy=0;entryX=0.5;entryY=0;entryDx=0;entryDy=0;" parent="1" source="219" target="216" edge="1">
                    <mxGeometry relative="1" as="geometry">
                        <mxPoint x="-145" y="421.74" as="sourcePoint"/>
                        <mxPoint x="-200" y="490" as="targetPoint"/>
                    </mxGeometry>
                </mxCell>
            </root>
        </mxGraphModel>
    </diagram>
</mxfile>